<svg width="40" height="40" viewBox="0 0 40 40" fill="none" xmlns="http://www.w3.org/2000/svg">
<g clip-path="url(#clip0_26_564)">
<path d="M0.591287 15.1961C3.24333 4.47343 14.085 -2.06285 24.8033 0.590268C35.5247 3.24238 42.0618 14.0823 39.4098 24.8029C36.7567 35.5236 25.9171 42.0629 15.1957 39.4087C4.47637 36.7576 -2.06379 25.9167 0.591287 15.1961Z" fill="#56AF31"/>
<path d="M1.38672 20.0798L19.851 31.8718L38.3162 20.0798L19.851 8.28885L1.38672 20.0798Z" fill="#FFD300"/>
<path d="M19.8519 12.171C24.2181 12.171 27.7586 15.7126 27.7586 20.0799C27.7586 24.4471 24.2181 27.9897 19.8519 27.9897C15.4858 27.9897 11.9413 24.4492 11.9413 20.0799C11.9413 15.7105 15.4817 12.171 19.8519 12.171Z" fill="#312783"/>
<path d="M27.7192 20.8763C24.2596 18.116 19.8399 16.5262 15.0704 16.696C14.2265 16.7243 13.3967 16.8142 12.5851 16.9497C12.4153 17.3408 12.2779 17.7502 12.1748 18.1716C13.1269 17.9806 14.1052 17.8603 15.1109 17.8239C19.8176 17.6582 24.1676 19.3077 27.4867 22.1417C27.5979 21.7334 27.6767 21.3099 27.7192 20.8763Z" fill="white"/>
<path d="M12.9711 17.4479L13.0591 17.6349L13.2208 17.6804L13.3633 17.5935L13.3926 17.3843L13.3067 17.1963L13.144 17.1548L12.9994 17.2418L12.9701 17.4479H12.9711ZM12.8135 17.4752L12.8206 17.2751L12.8741 17.1599L12.9641 17.076L13.1268 17.0214L13.4108 17.0881L13.5553 17.3641L13.4947 17.6693L13.242 17.8128L12.956 17.7471L12.8135 17.4742V17.4752Z" fill="#009545"/>
<path d="M14.0193 17.2569L14.1325 17.2468L14.272 17.2256L14.3124 17.1882L14.3235 17.1296L14.2983 17.0679L14.2346 17.0437L14.1194 17.0518L14.0001 17.0619L14.0183 17.2569H14.0193ZM13.9021 17.7158L13.8344 16.9456L14.1588 16.9163L14.3437 16.9204L14.4387 16.9861L14.4842 17.1053L14.4458 17.2519L14.2993 17.3368L14.3892 17.3944L14.4862 17.5116L14.5944 17.6541L14.4094 17.6703L14.2811 17.5126L14.1911 17.4075L14.1416 17.3782H14.0607L14.0284 17.3802L14.0577 17.7016L13.9021 17.7158Z" fill="#009545"/>
<path d="M14.9986 16.9901L15.0127 17.5025L15.1299 17.4995L15.2249 17.4904L15.2856 17.455L15.324 17.3782L15.3381 17.2377L15.3179 17.1013L15.2704 17.0265L15.1977 16.9931L15.0693 16.9901H14.9986ZM14.8389 16.8638L15.1249 16.8567L15.2714 16.8658L15.3887 16.9345L15.4675 17.0568L15.4968 17.2398L15.4766 17.4045L15.3998 17.543L15.2917 17.6077L15.1522 17.6289L14.8591 17.637L14.8389 16.8638Z" fill="#009545"/>
<path d="M15.8102 17.6147L15.8193 16.8415L16.3944 16.8506L16.3923 16.982L15.9749 16.9749L15.9729 17.1468L16.361 17.1528L16.358 17.2842L15.9699 17.2771L15.9658 17.4884L16.3984 17.4934L16.3964 17.6238L15.8102 17.6147Z" fill="#009545"/>
<path d="M16.7076 17.6349L16.7622 16.8638L16.9947 16.8799L17.0978 17.4166L17.2716 16.9002L17.5061 16.9163L17.4515 17.6875L17.308 17.6784L17.3504 17.071L17.1544 17.6673L17.0058 17.6572L16.8946 17.0376L16.8522 17.644L16.7076 17.6349Z" fill="#009545"/>
<path d="M18.2521 17.7794L18.3673 17.0154L18.9363 17.1023L18.9161 17.2316L18.5027 17.169L18.4764 17.3378L18.8615 17.3954L18.8413 17.5247L18.4583 17.4661L18.4259 17.6753L18.8544 17.739L18.8342 17.8684L18.2521 17.7794Z" fill="#009545"/>
<path d="M19.8914 17.4237L19.8419 17.638L19.9247 17.6572L20.049 17.6743L20.1056 17.647L20.135 17.5925L20.1259 17.5177L20.0713 17.4702L19.9662 17.4399L19.8914 17.4227V17.4237ZM19.5942 18.0139L19.7701 17.261L20.0137 17.3176L20.1916 17.3691L20.2835 17.4682L20.2926 17.6248L20.2411 17.737L20.1602 17.7966L20.0723 17.8138L19.9126 17.7875L19.8136 17.7653L19.7479 18.0503L19.5942 18.0139Z" fill="#009545"/>
<path d="M20.7464 17.8411L20.8566 17.8724L20.994 17.9007L21.0466 17.8836L21.0779 17.83L21.0729 17.7643L21.0254 17.7188L20.9152 17.6844L20.803 17.6521L20.7464 17.8421V17.8411ZM20.4735 18.2252L20.6858 17.4813L21.0011 17.5723L21.1679 17.642L21.2346 17.738V17.8644L21.1446 17.9897L20.9779 18.0149L21.0416 18.1009L21.0911 18.2474L21.1426 18.4182L20.9627 18.3667L20.899 18.1726L20.8515 18.0402L20.8152 17.9968L20.7404 17.9674L20.7111 17.9583L20.6231 18.2696L20.4725 18.2252H20.4735Z" fill="#009545"/>
<path d="M21.6327 18.1716L21.6237 18.3788L21.748 18.495L21.9127 18.4789L22.037 18.3101L22.0481 18.1029L21.9218 17.9897L21.755 18.0008L21.6327 18.1716ZM21.4791 18.1221L21.5762 17.9462L21.6772 17.8694L21.7945 17.8371L21.9632 17.8633L22.1866 18.0534V18.3657L21.9956 18.6093L21.7045 18.6194L21.4791 18.4324V18.1231V18.1221Z" fill="#009545"/>
<path d="M22.7829 18.7113L22.8324 18.59L23.1437 18.7184L23.0285 19.0024L22.8637 19.0267L22.6767 18.9883L22.4989 18.8609L22.4312 18.675L22.4675 18.4657L22.5959 18.2868L22.7869 18.21L22.9719 18.2464L23.1568 18.3879L23.1892 18.582L23.0355 18.5486L23.0133 18.4415L22.9223 18.3687L22.7475 18.3657L22.6161 18.5213L22.5959 18.7356L22.7182 18.8609L22.8172 18.8801L22.9122 18.87L22.9496 18.7791L22.7829 18.7113Z" fill="#009545"/>
<path d="M23.6147 18.8973L23.7208 18.9479L23.8492 19.0004L23.9038 18.9893L23.9422 18.9438L23.9513 18.8781L23.9108 18.8256L23.8118 18.775L23.6986 18.7225L23.6147 18.8983V18.8973ZM23.2832 19.2349L23.6147 18.5365L23.9098 18.677L24.0635 18.774L24.115 18.8791L24.0907 19.0034L23.9846 19.1116L23.8158 19.1086L23.8623 19.2026L23.8896 19.3552L23.9098 19.5321L23.741 19.4522L23.7117 19.2511L23.6875 19.1126L23.6582 19.0631L23.5905 19.0216L23.5632 19.0085L23.4227 19.3006L23.2832 19.2329V19.2349Z" fill="#009545"/>
<path d="M24.1362 19.6503L24.5061 18.9711L25.0085 19.245L24.9478 19.3582L24.5779 19.1601L24.497 19.3117L24.8397 19.4957L24.776 19.6109L24.4364 19.4259L24.3363 19.6109L24.7154 19.8161L24.6547 19.9313L24.1362 19.6503Z" fill="#009545"/>
<path d="M25.0155 19.8484L25.153 19.9131L25.1419 20.0394L25.2187 20.1284L25.3339 20.1597L25.4056 20.1162L25.4168 20.0667L25.3854 20.0101L25.2955 19.9171L25.1843 19.7595L25.2045 19.5907L25.2904 19.5118L25.4127 19.4957L25.5562 19.5513L25.7099 19.719L25.6897 19.907L25.5522 19.8312L25.5613 19.7352L25.4895 19.6604L25.3834 19.6291L25.3379 19.6584L25.3339 19.7099L25.4309 19.8282L25.5431 19.9626L25.5744 20.0758L25.5391 20.1961L25.4441 20.285L25.3086 20.3032L25.151 20.2406L24.9933 20.0657L25.0155 19.8484Z" fill="#009545"/>
<path d="M25.7887 20.3254L25.9241 20.3992L25.9059 20.5215L25.9807 20.6155L26.0929 20.6529L26.1656 20.6125L26.1788 20.566L26.1515 20.5064L26.0666 20.4083L25.9625 20.2456L25.9918 20.0778L26.0818 20.003L26.2061 19.9929L26.3466 20.0566L26.4901 20.2325L26.4608 20.4174L26.3284 20.3366L26.3395 20.2405L26.2738 20.1637L26.1697 20.1273L26.1202 20.1506L26.1141 20.2042L26.204 20.3275L26.3122 20.4669L26.3395 20.5812L26.296 20.7004L26.195 20.7823L26.0615 20.7964L25.9059 20.7237L25.7573 20.5427L25.7887 20.3254Z" fill="#009545"/>
<path d="M26.7549 20.8318L26.6841 21.0299L26.765 21.1755L26.9277 21.2149L27.0995 21.0895L27.1713 20.8965L27.0864 20.751L26.9237 20.7095L26.7549 20.8318ZM26.6235 20.7388L26.7721 20.6034L26.8913 20.562L27.0126 20.566L27.1662 20.6428L27.3199 20.8925L27.2228 21.1906L26.9661 21.3624L26.6841 21.2836L26.5305 21.0329L26.6225 20.7398L26.6235 20.7388Z" fill="#009545"/>
<path d="M22.3615 17.078L22.4363 17.3024H22.6697L22.4807 17.4409L22.5535 17.6622L22.3615 17.5258L22.1715 17.6622L22.2462 17.4409L22.0573 17.3024H22.2907L22.3615 17.078Z" fill="white"/>
<path d="M19.8823 23.4678L19.9551 23.6901H20.1895L20.0005 23.8276L20.0723 24.053L19.8823 23.9135L19.6933 24.053L19.7661 23.8276L19.576 23.6901H19.8105L19.8823 23.4678Z" fill="white"/>
<path d="M25.4956 22.6814L25.5704 22.9098H25.8089L25.6159 23.0503L25.6897 23.2767L25.4956 23.1373L25.3046 23.2767L25.3764 23.0503L25.1843 22.9098H25.4218L25.4956 22.6814Z" fill="white"/>
<path d="M26.6033 22.8704L26.6508 23.015H26.8034L26.6801 23.1049L26.7266 23.2515L26.6033 23.1625L26.481 23.2515L26.5265 23.1049L26.4042 23.015H26.5578L26.6033 22.8704Z" fill="white"/>
<path d="M25.816 23.4354L25.8817 23.6335H26.0889L25.9201 23.7548L25.9858 23.9519L25.816 23.8306L25.6493 23.9519L25.715 23.7548L25.5452 23.6335H25.7534L25.816 23.4354Z" fill="white"/>
<path d="M25.3217 24.0883L25.3854 24.2824H25.5885L25.4258 24.4027L25.4895 24.5967L25.3217 24.4765L25.16 24.5967L25.2237 24.4027L25.0559 24.2824H25.2611L25.3217 24.0883Z" fill="white"/>
<path d="M24.6881 24.5623L24.7376 24.7109H24.8943L24.7669 24.8049L24.8164 24.9535L24.6881 24.8595L24.5628 24.9535L24.6092 24.8049L24.4829 24.7109H24.6416L24.6881 24.5623Z" fill="white"/>
<path d="M23.8562 24.4027L23.9058 24.5492H24.0594L23.9351 24.6402L23.9826 24.7888L23.8562 24.6978L23.7329 24.7888L23.7794 24.6402L23.6561 24.5492H23.8118L23.8562 24.4027Z" fill="white"/>
<path d="M22.9609 24.6735L23.0134 24.8342H23.1802L23.0447 24.9323L23.0973 25.0909L22.9609 24.9919L22.8254 25.0909L22.878 24.9323L22.7426 24.8342H22.9093L22.9609 24.6735Z" fill="white"/>
<path d="M23.8724 25.9794L23.9199 26.131H24.0776L23.9512 26.2219L24.0008 26.3725L23.8724 26.2796L23.743 26.3725L23.7936 26.2219L23.6672 26.131H23.8229L23.8724 25.9794Z" fill="white"/>
<path d="M22.2574 25.2921L22.3231 25.4952H22.5373L22.3635 25.6216L22.4312 25.8237L22.2574 25.6974L22.0835 25.8237L22.1513 25.6216L21.9774 25.4952H22.1917L22.2574 25.2921Z" fill="white"/>
<path d="M21.6368 24.4663L21.6893 24.622H21.8541L21.7207 24.717L21.7722 24.8737L21.6368 24.7776L21.5064 24.8737L21.5559 24.717L21.4255 24.622H21.5883L21.6368 24.4663Z" fill="white"/>
<path d="M23.8967 25.1132L23.9624 25.3103H24.1696L24.0008 25.4326L24.0645 25.6297L23.8967 25.5084L23.73 25.6297L23.7936 25.4326L23.6259 25.3103H23.8341L23.8967 25.1132Z" fill="white"/>
<path d="M19.8741 26.3847L19.8964 26.4564H19.9712L19.9095 26.5009L19.9327 26.5706L19.8741 26.5272L19.8135 26.5706L19.8357 26.5009L19.7771 26.4564H19.8519L19.8741 26.3847Z" fill="white"/>
<path d="M21.9713 19.4845L22.0259 19.6473H22.1947L22.0573 19.7463L22.1108 19.908L21.9713 19.809L21.8359 19.908L21.8875 19.7463L21.75 19.6473H21.9198L21.9713 19.4845Z" fill="white"/>
<path d="M19.8782 21.228L19.9348 21.3988H20.1157L19.9681 21.504L20.0247 21.6758L19.8782 21.5686L19.7346 21.6758L19.7902 21.504L19.6437 21.3988H19.8246L19.8782 21.228Z" fill="white"/>
<path d="M20.807 21.9476L20.8666 22.1306H21.0597L20.904 22.2428L20.9657 22.4257L20.807 22.3125L20.6513 22.4257L20.713 22.2428L20.5543 22.1306H20.7484L20.807 21.9476Z" fill="white"/>
<path d="M19.0758 21.9719L19.1212 22.1164H19.2739L19.1506 22.2044L19.197 22.3509L19.0758 22.261L18.9514 22.3509L18.9989 22.2044L18.8746 22.1164H19.0262L19.0758 21.9719Z" fill="white"/>
<path d="M19.4587 22.6228L19.4901 22.7208H19.5922L19.5083 22.7795L19.5406 22.8755L19.4587 22.8158L19.3779 22.8755L19.4092 22.7795L19.3284 22.7208H19.4274L19.4587 22.6228Z" fill="white"/>
<path d="M13.3168 18.4566L13.3885 18.681H13.623L13.433 18.8175L13.5058 19.0408L13.3168 18.9024L13.1268 19.0408L13.1985 18.8175L13.0095 18.681H13.244L13.3168 18.4566Z" fill="white"/>
<path d="M16.7754 20.2517L16.834 20.4356H17.028L16.8724 20.5498L16.933 20.7338L16.7754 20.6196L16.6177 20.7338L16.6804 20.5498L16.5227 20.4356H16.7168L16.7754 20.2517Z" fill="white"/>
<path d="M14.0334 21.8152L14.1052 22.0396H14.3396L14.1506 22.1801L14.2224 22.4025L14.0334 22.263L13.8414 22.4025L13.9141 22.1801L13.7241 22.0396H13.9586L14.0334 21.8152Z" fill="white"/>
<path d="M14.8096 21.4817L14.845 21.5949H14.9622L14.8672 21.6636L14.9036 21.7748L14.8096 21.7061L14.7146 21.7748L14.75 21.6636L14.656 21.5949H14.7732L14.8096 21.4817Z" fill="white"/>
<path d="M15.7112 22.6582L15.7718 22.8482H15.9729L15.8102 22.9654L15.8709 23.1565L15.7112 23.0382L15.5464 23.1565L15.6101 22.9654L15.4474 22.8482H15.6475L15.7112 22.6582Z" fill="white"/>
<path d="M16.6511 24.1277L16.7239 24.3511H16.9583L16.7683 24.4886L16.8411 24.7109L16.6511 24.5745L16.4621 24.7109L16.5338 24.4886L16.3448 24.3511H16.5793L16.6511 24.1277Z" fill="white"/>
<path d="M15.4494 23.4556L15.5121 23.6456H15.7112L15.5515 23.7639L15.6121 23.9529L15.4494 23.8357L15.2897 23.9529L15.3503 23.7639L15.1876 23.6456H15.3887L15.4494 23.4556Z" fill="white"/>
<path d="M13.0409 22.6289L13.0884 22.7754H13.244L13.1177 22.8674L13.1672 23.015L13.0409 22.925L12.9145 23.015L12.962 22.8674L12.8357 22.7754H12.9913L13.0409 22.6289Z" fill="white"/>
<path d="M20.6858 17.4813L20.4735 18.2252L20.6241 18.2696L20.712 17.9583L20.7413 17.9674L20.8161 17.9968L20.8525 18.0402L20.9 18.1726L20.9637 18.3667L21.1436 18.4182L21.0921 18.2474L21.0425 18.1009L20.9789 18.0149L21.1456 17.9897L21.2356 17.8654V17.739L21.1679 17.643L21.0011 17.5733L20.6858 17.4823V17.4813ZM20.995 17.9007L20.8576 17.8724L20.7474 17.8411L20.804 17.6511L20.9162 17.6834L21.0264 17.7178L21.0739 17.7633L21.0789 17.829L21.0476 17.8825L20.995 17.8997V17.9007Z" fill="#068037"/>
<path d="M21.7954 17.8371L21.6782 17.8694L21.5771 17.9462L21.4801 18.1221V18.4314L21.7055 18.6184L21.9966 18.6082L22.1886 18.3647V18.0524L21.9652 17.8623L21.7964 17.8361L21.7954 17.8371ZM21.7479 18.495L21.6236 18.3788L21.6327 18.1716L21.755 18.0008L21.9218 17.9897L22.0481 18.1029L22.037 18.3101L21.9127 18.4789L21.7479 18.495Z" fill="#068037"/>
<path d="M22.7869 18.211L22.5959 18.2868L22.4675 18.4657L22.4312 18.6749L22.4989 18.8609L22.6767 18.9883L22.8637 19.0267L23.0285 19.0024L23.1437 18.7184L22.8324 18.59L22.7829 18.7113L22.9496 18.7791L22.9122 18.87L22.8172 18.8801L22.7182 18.8609L22.5959 18.7356L22.6161 18.5213L22.7475 18.3667L22.9223 18.3687L23.0133 18.4425L23.0355 18.5486L23.1892 18.582L23.1568 18.3879L22.9719 18.2464L22.7869 18.211Z" fill="#068037"/>
<path d="M23.6147 18.5365L23.2832 19.2349L23.4227 19.3026L23.5632 19.0105L23.5894 19.0237L23.6572 19.0651L23.6865 19.1146L23.7107 19.2531L23.74 19.4542L23.9098 19.5341L23.8896 19.3572L23.8623 19.2046L23.8158 19.1106L23.9846 19.1126L24.0907 19.0045L24.115 18.8801L24.0635 18.775L23.9098 18.678L23.6147 18.5375V18.5365ZM23.8492 19.0004L23.7208 18.9479L23.6147 18.8973L23.6986 18.7215L23.8118 18.774L23.9108 18.8246L23.9513 18.8771L23.9422 18.9428L23.9038 18.9883L23.8492 18.9994V19.0004Z" fill="#068037"/>
<path d="M24.5061 18.9711L24.1362 19.6503L24.6547 19.9313L24.7154 19.8161L24.3363 19.6109L24.4364 19.4259L24.776 19.6109L24.8397 19.4957L24.497 19.3117L24.5779 19.1601L24.9478 19.3582L25.0085 19.245L24.5061 18.9711Z" fill="#068037"/>
<path d="M25.4127 19.4957L25.2904 19.5118L25.2045 19.5907L25.1843 19.7595L25.2955 19.9171L25.3854 20.0101L25.4168 20.0667L25.4056 20.1162L25.3339 20.1597L25.2187 20.1284L25.1419 20.0394L25.153 19.9131L25.0155 19.8484L24.9933 20.0657L25.151 20.2406L25.3086 20.3032L25.4441 20.285L25.5391 20.1961L25.5744 20.0758L25.5431 19.9626L25.4309 19.8282L25.3339 19.7099L25.3379 19.6584L25.3834 19.6291L25.4895 19.6604L25.5613 19.7352L25.5522 19.8312L25.6897 19.906L25.7099 19.719L25.5562 19.5513L25.4127 19.4957Z" fill="#068037"/>
<path d="M26.2061 19.9929L26.0818 20.003L25.9918 20.0778L25.9625 20.2456L26.0666 20.4083L26.1515 20.5064L26.1788 20.566L26.1656 20.6125L26.0939 20.6529L25.9807 20.6155L25.9059 20.5215L25.9241 20.3992L25.7887 20.3254L25.7573 20.5427L25.9059 20.7237L26.0615 20.7964L26.195 20.7823L26.296 20.7004L26.3395 20.5812L26.3122 20.4669L26.204 20.3275L26.1141 20.2042L26.1202 20.1506L26.1697 20.1273L26.2738 20.1637L26.3395 20.2405L26.3274 20.3366L26.4608 20.4174L26.4901 20.2325L26.3466 20.0566L26.2061 19.9929Z" fill="#068037"/>
<path d="M26.8914 20.562L26.7722 20.6034L26.6236 20.7388L26.5316 21.0319L26.6842 21.2826L26.9662 21.3614L27.2229 21.1906L27.32 20.8925L27.1663 20.6428L27.0127 20.567L26.8914 20.563V20.562ZM26.9278 21.2149L26.7651 21.1755L26.6842 21.0299L26.755 20.8318L26.9238 20.7095L27.0865 20.751L27.1724 20.8965L27.1006 21.0895L26.9288 21.2149H26.9278Z" fill="#068037"/>
</g>
<defs>
<clipPath id="clip0_26_564">
<rect width="40" height="40" fill="white"/>
</clipPath>
</defs>
</svg>
