<svg width="40" height="40" viewBox="0 0 40 40" fill="none" xmlns="http://www.w3.org/2000/svg">
<g clip-path="url(#clip0_26_626)">
<path d="M0.590452 15.1966C3.24301 4.47371 14.0852 -2.06314 24.8038 0.590492C35.5254 3.2421 42.0621 14.0825 39.4095 24.8034C36.7559 35.5243 25.9168 42.0632 15.1952 39.4095C4.47661 36.7579 -2.06413 25.9165 0.590452 15.1966Z" fill="#F6F6F6"/>
<path d="M13.3022 1.15768C7.19801 3.33427 2.2646 8.43087 0.590425 15.1966C-1.90413 25.2703 3.72001 35.4493 13.3022 38.8413V1.15768Z" fill="#24356B"/>
<path d="M26.7291 1.16983V38.8302C32.8202 36.6475 37.7394 31.555 39.4095 24.8034C41.899 14.7408 36.2931 4.57296 26.7291 1.16983Z" fill="#E52A18"/>
</g>
<defs>
<clipPath id="clip0_26_626">
<rect width="40" height="40" fill="white"/>
</clipPath>
</defs>
</svg>
