<svg width="779" height="294" viewBox="0 0 779 294" fill="none" xmlns="http://www.w3.org/2000/svg">
<path d="M627.583 338.427C635.3 338.427 642.76 335.952 648.986 331.363C649.089 331.363 649.243 331.26 649.294 331.157L648.986 330.693L647.802 328.94L647.699 328.682L646.876 327.341L636.792 310.944L635.403 308.675L634.683 307.541L615.08 275.778L611.067 269.281L610.81 268.868L609.833 267.373L609.73 267.115L609.627 266.857L605.974 260.979L605.305 259.845L597.742 247.573L523.191 126.708C523.191 126.708 523.037 126.502 522.986 126.398L520.979 123.047C520.979 123.047 520.876 122.789 520.773 122.737C518.612 119.386 516.143 116.292 513.365 113.456C513.365 113.353 513.365 113.353 513.262 113.353C513.262 113.353 513.21 113.353 513.262 113.301C512.078 112.167 510.946 110.929 509.712 109.795C509.712 109.795 509.677 109.778 509.609 109.743C509.609 109.743 509.351 109.537 509.249 109.486C508.58 108.815 507.859 108.196 507.088 107.578L505.493 106.289C504.104 105.154 502.612 104.123 501.12 103.092C499.627 102.112 498.084 101.132 496.489 100.307C495.666 99.8948 494.843 99.4822 494.071 99.0182C493.248 98.6057 492.424 98.2447 491.601 97.8322C490.264 97.2134 488.926 96.6462 487.588 96.1822C487.074 95.9759 486.559 95.7697 486.045 95.615C484.964 95.2025 483.781 94.8415 482.649 94.4806C482.546 94.429 482.392 94.3774 482.289 94.3774C481.26 94.0681 480.231 93.8618 479.202 93.604C478.019 93.3462 476.784 93.0884 475.6 92.8305C473.8 92.5212 472.05 92.2634 470.301 92.1087C467.008 91.7477 463.767 91.6446 460.577 91.7993C460.011 91.7993 459.445 91.9024 458.879 91.9024C458.005 91.954 457.079 92.0055 456.204 92.1602C455.69 92.1602 455.175 92.1602 454.712 92.2633C454.146 92.3149 453.632 92.418 453.168 92.5212C450.082 92.9852 447.046 93.6556 444.062 94.5837C443.342 94.79 442.673 94.9962 441.952 95.254C440.769 95.6665 439.586 96.1306 438.402 96.5431C437.219 97.0072 436.087 97.5228 434.904 98.0384C433.721 98.6056 432.589 99.1213 431.508 99.6885C430.068 100.41 428.627 101.287 427.238 102.164C425.9 102.989 424.665 103.865 423.379 104.742C421.836 105.825 420.344 107.011 419.006 108.196C417.565 109.382 416.228 110.672 414.941 111.961C414.478 112.425 413.964 112.94 413.501 113.456C410.002 117.117 406.967 121.242 404.343 125.676C414.015 106.907 428.473 91.5414 445.966 80.8162C446.326 80.5584 446.789 80.3006 447.149 80.0944C447.56 79.8881 447.972 79.6303 448.384 79.4756C459.342 72.927 471.433 68.3379 484.09 65.8628C484.553 65.7081 485.067 65.6566 485.53 65.5535C485.993 65.4503 486.508 65.3988 486.971 65.2956C499.628 63.1815 512.901 63.0784 526.33 65.5019C559.463 71.4317 586.68 91.0258 603.247 117.478L683.817 248.088L684.692 249.48L723.948 313.161L730.019 323.01L734.855 331.002L735.061 331.312C747.666 349.204 767.474 364.673 790.729 368.798C805.907 371.531 820.467 367.767 833.998 362.869C834.462 362.714 834.925 362.559 835.336 362.405L746.688 218.697L745.968 217.511L685.978 120.159L685.875 120.056L674.556 101.803C671.16 96.3884 667.508 91.2321 663.443 86.3851C641.114 58.9533 609.267 39.1014 571.76 32.3981C564.248 31.0575 556.685 30.284 549.225 30.0262C523.037 29.3043 497.827 35.2341 475.446 46.7328C475.035 46.939 474.674 47.1453 474.211 47.3515C473.8 47.5578 473.44 47.764 472.977 48.0219C461.863 53.9001 451.522 61.1706 442.21 69.627C441.901 69.8848 441.541 70.2457 441.232 70.5035C440.821 70.8129 440.512 71.1739 440.152 71.4832C421.475 89.0148 407.07 111.29 398.992 136.866C398.992 136.969 398.889 137.124 398.889 137.227C398.889 137.278 398.889 137.381 398.786 137.433C398.786 137.691 398.632 137.897 398.529 138.155C398.117 139.444 397.757 140.681 397.346 142.022C396.78 143.775 396.214 145.477 395.802 147.333C404.96 126.656 427.649 113.817 450.853 117.994C451.522 118.097 452.139 118.2 452.757 118.406C453.426 118.509 454.043 118.715 454.66 118.87C455.638 119.076 456.564 119.386 457.49 119.695C458.416 120.005 459.394 120.314 460.269 120.675C460.783 120.881 461.349 121.087 461.863 121.345C461.915 121.345 462.018 121.345 462.121 121.448C463.253 121.912 464.333 122.48 465.413 123.047C465.825 123.253 466.237 123.459 466.648 123.717C468.706 124.851 470.661 126.089 472.462 127.533C474.211 128.925 475.858 130.369 477.35 131.864L477.35 131.916C478.533 132.947 479.614 134.133 480.54 135.37C481.311 136.299 482.083 137.278 482.855 138.361L483.627 139.496C483.884 139.856 484.141 140.321 484.398 140.681C484.81 141.352 485.273 142.074 485.633 142.744L520.002 198.433L520.207 198.794L567.592 275.468L586.217 305.788L587.503 307.85L591.362 314.141L591.362 314.193L591.928 315.018C591.98 315.018 591.928 315.069 592.031 315.121L593.626 317.751C594.192 318.782 594.861 319.813 595.53 320.741C596.61 322.34 597.845 323.835 599.234 325.176C599.543 325.588 599.903 325.898 600.211 326.259C600.777 326.929 601.343 327.496 601.909 328.063C601.909 328.115 602.064 328.218 602.115 328.218C607.363 333.168 613.897 336.468 620.946 337.706C622.335 337.963 623.827 338.118 625.525 338.221C626.194 338.221 626.914 338.324 627.583 338.221L627.583 338.427Z" fill="#1B9B97"/>
<path d="M207.754 -43.7091C200.036 -43.7091 192.576 -41.2341 186.351 -36.6449C186.248 -36.6449 186.093 -36.5418 186.042 -36.4387L186.351 -35.9746L187.534 -34.2215L187.637 -33.9636L188.46 -32.623L198.544 -16.2258L199.933 -13.957L200.654 -12.8226L220.256 18.9405L224.269 25.4375L224.526 25.85L225.504 27.3454L225.607 27.6032L225.71 27.861L229.363 33.7392L230.031 34.8736L237.594 47.1457L312.145 168.011C312.145 168.011 312.299 168.217 312.351 168.32L314.357 171.672C314.357 171.672 314.46 171.929 314.563 171.981C316.724 175.333 319.194 178.426 321.972 181.262C321.972 181.366 321.972 181.366 322.075 181.366C322.075 181.366 322.126 181.366 322.075 181.417C323.258 182.552 324.39 183.789 325.625 184.923C325.625 184.923 325.659 184.941 325.728 184.975C325.728 184.975 325.985 185.181 326.088 185.233C326.757 185.903 327.477 186.522 328.249 187.141L329.844 188.43C331.233 189.564 332.725 190.595 334.217 191.627C335.709 192.606 337.252 193.586 338.847 194.411C339.67 194.824 340.494 195.236 341.265 195.7C342.089 196.113 342.912 196.474 343.735 196.886C345.073 197.505 346.41 198.072 347.748 198.536C348.263 198.742 348.777 198.949 349.292 199.103C350.372 199.516 351.555 199.877 352.687 200.238C352.79 200.289 352.944 200.341 353.047 200.341C354.076 200.65 355.105 200.857 356.134 201.114C357.318 201.372 358.552 201.63 359.736 201.888C361.537 202.197 363.286 202.455 365.035 202.61C368.328 202.971 371.569 203.074 374.759 202.919C375.325 202.919 375.891 202.816 376.457 202.816C377.332 202.764 378.258 202.713 379.132 202.558C379.647 202.558 380.161 202.558 380.624 202.455C381.19 202.403 381.705 202.3 382.168 202.197C385.255 201.733 388.29 201.063 391.274 200.135C391.995 199.928 392.664 199.722 393.384 199.464C394.567 199.052 395.751 198.588 396.934 198.175C398.117 197.711 399.249 197.196 400.432 196.68C401.616 196.113 402.748 195.597 403.828 195.03C405.269 194.308 406.709 193.431 408.098 192.555C409.436 191.73 410.671 190.853 411.957 189.977C413.501 188.894 414.993 187.708 416.33 186.522C417.771 185.336 430.994 169.042 420.395 182.758C419.983 183.273 421.372 181.778 421.835 181.262C425.334 177.601 428.37 173.476 430.994 169.042C421.321 187.811 406.864 203.177 389.371 213.902C389.011 214.16 388.548 214.418 388.187 214.624C387.776 214.83 387.364 215.088 386.953 215.243C375.994 221.791 363.903 226.38 351.247 228.855C350.784 229.01 350.269 229.062 349.806 229.165C349.343 229.268 348.829 229.32 348.365 229.423C335.709 231.537 322.435 231.64 309.007 229.216C275.873 223.287 248.656 203.693 232.089 177.24L151.519 46.6301L150.645 45.2379L111.389 -18.443L105.317 -28.2917L100.481 -36.284L100.275 -36.5934C87.6703 -54.4859 67.8622 -69.955 44.607 -74.0801C29.4294 -76.8129 14.8691 -73.0488 1.33786 -68.1503C0.874817 -67.9956 0.411712 -67.8409 0.000121751 -67.6862L88.6479 76.0213L89.3682 77.2073L149.358 174.559L149.461 174.662L160.78 192.916C164.176 198.33 167.829 203.486 171.893 208.333C194.222 235.765 226.07 255.617 263.576 262.32C271.088 263.661 278.651 264.434 286.111 264.692C312.299 265.414 337.51 259.484 359.89 247.986C360.302 247.779 360.662 247.573 361.125 247.367C361.537 247.161 361.897 246.954 362.36 246.696C373.473 240.818 383.814 233.548 393.127 225.091C393.435 224.834 393.795 224.473 394.104 224.215C394.516 223.905 394.824 223.544 395.185 223.235C413.861 205.704 428.267 183.428 436.344 157.853C436.344 157.749 436.447 157.595 436.447 157.492C436.447 157.44 436.447 157.337 436.55 157.285C436.55 157.028 436.704 156.821 436.807 156.564C437.219 155.274 437.579 154.037 437.991 152.696C438.557 150.943 439.123 149.241 439.534 147.385C430.376 168.062 407.687 180.901 384.483 176.725C383.814 176.622 383.197 176.519 382.579 176.312C381.911 176.209 381.293 176.003 380.676 175.848C379.698 175.642 378.772 175.333 377.846 175.023C376.92 174.714 375.942 174.404 375.068 174.044C374.553 173.837 373.987 173.631 373.473 173.373C373.421 173.373 373.319 173.373 373.216 173.27C372.084 172.806 371.003 172.239 369.923 171.672C369.511 171.465 369.1 171.259 368.688 171.001C366.63 169.867 364.675 168.629 362.874 167.186C361.125 165.793 359.479 164.35 357.987 162.854L357.987 162.803C356.803 161.771 355.723 160.585 354.797 159.348C354.025 158.42 353.253 157.44 352.481 156.357L351.71 155.223C351.452 154.862 351.195 154.398 350.938 154.037C350.526 153.367 350.063 152.645 349.703 151.974L315.335 96.2857L315.129 95.9248L267.744 19.2499L249.119 -11.0694L247.833 -13.132L243.974 -19.4227L243.974 -19.4743L243.408 -20.2993C243.357 -20.2993 243.408 -20.3509 243.305 -20.4024L241.71 -23.0322C241.144 -24.0635 240.476 -25.0947 239.807 -26.0229C238.726 -27.6213 237.492 -29.1167 236.102 -30.4573C235.794 -30.8698 235.434 -31.1792 235.125 -31.5402C234.559 -32.2105 233.993 -32.7777 233.427 -33.3449C233.427 -33.3964 233.273 -33.4996 233.221 -33.4996C227.973 -38.4497 221.439 -41.7497 214.391 -42.9873C213.002 -43.2451 211.51 -43.3998 209.812 -43.5029C209.143 -43.5029 208.423 -43.606 207.754 -43.5029L207.754 -43.7091Z" fill="#1B9B97"/>
</svg>
