<svg width="793" height="294" viewBox="0 0 793 294" fill="none" xmlns="http://www.w3.org/2000/svg">
<g clip-path="url(#clip0_26_554)">
<path d="M185.85 -23.0275C178.652 -23.0275 171.664 -20.7292 165.822 -16.4459C165.718 -16.4459 165.614 -16.3414 165.509 -16.2369L165.822 -15.8191L166.97 -14.1475L166.97 -13.9386L167.804 -12.6849L177.296 2.67211L178.548 4.76153L179.278 5.80627L197.637 35.5802L201.392 41.6395L201.6 42.0574L202.539 43.4155L202.539 43.6244L202.748 43.8333L206.19 49.3703L206.816 50.415L213.909 61.9067L283.692 175.048C283.692 175.048 283.796 175.257 283.9 175.361L285.778 178.495C285.778 178.495 285.882 178.704 285.987 178.809C288.073 181.943 290.368 184.868 292.871 187.48L292.871 187.584C294.018 188.629 295.061 189.778 296.209 190.927C296.209 190.927 296.418 191.136 296.522 191.241C297.148 191.867 297.774 192.494 298.504 193.017L299.964 194.27C301.32 195.315 302.676 196.36 304.032 197.195C305.388 198.136 306.848 198.971 308.309 199.807C309.039 200.225 309.873 200.643 310.604 200.956C311.334 201.374 312.168 201.688 312.898 202.001C314.15 202.628 315.402 203.15 316.654 203.568C317.175 203.777 317.592 203.986 318.114 204.091C319.157 204.508 320.2 204.822 321.347 205.135C321.347 205.135 321.556 205.135 321.66 205.24C322.599 205.553 323.642 205.762 324.581 205.971C325.728 206.18 326.876 206.493 327.919 206.702C329.588 207.016 331.257 207.225 332.926 207.434C335.951 207.747 339.08 207.851 342.001 207.747C342.522 207.747 343.044 207.747 343.565 207.747C344.4 207.747 345.234 207.642 346.069 207.538C346.59 207.538 347.008 207.538 347.425 207.434C347.946 207.434 348.468 207.329 348.885 207.225C351.806 206.807 354.622 206.18 357.438 205.344C358.064 205.135 358.794 204.926 359.42 204.717C360.568 204.299 361.611 203.882 362.758 203.464C363.906 203.046 364.949 202.523 365.992 202.106C367.035 201.583 368.182 201.061 369.225 200.539C370.581 199.807 371.937 199.076 373.189 198.24C374.441 197.509 375.588 196.673 376.84 195.837C378.3 194.793 379.656 193.748 380.908 192.599C382.264 191.45 383.516 190.3 384.663 189.047C385.08 188.629 385.602 188.107 386.019 187.689C389.253 184.241 392.173 180.376 394.573 176.301C385.498 193.852 371.937 208.269 355.561 218.298C355.248 218.507 354.831 218.821 354.413 219.03C354.413 219.03 353.683 219.448 353.266 219.657C343.044 225.82 331.674 230.104 319.887 232.402C319.47 232.506 318.948 232.611 318.531 232.715C318.114 232.715 317.592 232.82 317.175 232.924C305.284 234.909 292.871 235.014 280.354 232.715C249.374 227.178 223.818 208.792 208.38 184.032L132.965 61.8022L132.13 60.5486L95.3092 1.00061L89.5722 -8.19272L84.9826 -15.7146L84.774 -16.028C72.9871 -32.7432 54.42 -47.2646 32.7237 -51.1299C18.5376 -53.6372 4.87312 -50.1897 -7.7483 -45.593C-8.16554 -45.4886 -8.68709 -45.2796 -9.00001 -45.1752L74.0302 89.2779L74.7603 90.427L130.983 181.525L130.983 181.629L141.518 198.763C144.648 203.777 148.09 208.687 151.949 213.179C172.915 238.879 202.643 257.475 237.796 263.743C244.889 264.997 251.877 265.728 258.866 265.937C283.379 266.668 307.057 261.027 327.919 250.266C328.336 250.057 328.649 249.848 329.066 249.639C329.484 249.431 329.796 249.222 330.214 249.013C340.645 243.476 350.345 236.685 359.003 228.745C359.316 228.537 359.629 228.223 359.942 227.91C359.942 227.91 360.672 227.283 360.985 226.969C378.509 210.568 391.965 189.778 399.579 165.75C399.579 165.75 399.579 165.541 399.684 165.437C399.684 165.437 399.684 165.332 399.684 165.228C399.684 165.019 399.788 164.81 399.892 164.496C400.31 163.347 400.622 162.094 401.04 160.944C401.561 159.273 402.083 157.706 402.5 156.034C393.947 175.361 372.668 187.375 350.971 183.51C350.345 183.405 349.72 183.301 349.198 183.092C348.572 182.988 347.946 182.779 347.425 182.674C346.486 182.465 345.651 182.152 344.713 181.838C343.878 181.525 342.939 181.212 342.105 180.898C341.583 180.689 341.062 180.48 340.645 180.271C340.645 180.271 340.54 180.271 340.436 180.271C339.393 179.853 338.35 179.331 337.411 178.809C336.994 178.6 336.681 178.391 336.264 178.182C334.282 177.137 332.509 175.988 330.84 174.63C329.171 173.376 327.71 172.018 326.25 170.556C325.103 169.615 324.164 168.466 323.225 167.317C322.495 166.481 321.765 165.541 321.034 164.496L320.304 163.452C320.304 163.452 319.783 162.72 319.574 162.302C319.157 161.676 318.74 161.049 318.427 160.422L286.299 108.291L286.091 107.978L241.759 36.207L224.34 7.79116L223.088 5.80626L219.437 -0.14857L218.916 -0.879862C218.916 -0.879862 218.916 -0.879862 218.916 -0.984324L217.455 -3.38713C216.934 -4.32737 216.308 -5.26759 215.682 -6.20783C214.639 -7.67042 213.492 -9.13301 212.24 -10.3866C211.927 -10.8045 211.614 -11.1179 211.301 -11.4313C210.78 -12.0581 210.258 -12.5805 209.736 -13.1029C209.736 -13.1029 209.632 -13.2073 209.528 -13.2073C204.625 -17.804 198.471 -20.9381 191.9 -22.0873C190.544 -22.2962 189.188 -22.5052 187.623 -22.6096C186.997 -22.6096 186.371 -22.6096 185.745 -22.6096L185.85 -23.0275Z" fill="#1E9B97"/>
<path d="M620.15 333.028C627.348 333.028 634.336 330.729 640.178 326.446C640.282 326.446 640.386 326.342 640.491 326.237L640.178 325.819L639.03 324.148L639.03 323.939L638.196 322.685L628.704 307.328L627.452 305.239L626.722 304.194L608.363 274.42L604.608 268.361L604.4 267.943L603.461 266.585L603.461 266.376L603.252 266.167L599.81 260.63L599.184 259.585L592.091 248.093L522.308 134.952C522.308 134.952 522.204 134.743 522.1 134.639L520.222 131.505C520.222 131.505 520.118 131.296 520.013 131.191C517.927 128.057 515.632 125.132 513.129 122.52L513.129 122.416C511.982 121.371 510.939 120.222 509.791 119.073C509.791 119.073 509.583 118.864 509.478 118.759C508.852 118.133 508.226 117.506 507.496 116.983L506.036 115.73C504.68 114.685 503.324 113.64 501.968 112.805C500.612 111.864 499.152 111.029 497.691 110.193C496.961 109.775 496.127 109.357 495.396 109.044C494.666 108.626 493.832 108.312 493.102 107.999C491.85 107.372 490.598 106.85 489.347 106.432C488.825 106.223 488.408 106.014 487.886 105.91C486.843 105.492 485.8 105.178 484.653 104.865C484.653 104.865 484.444 104.865 484.34 104.76C483.401 104.447 482.358 104.238 481.419 104.029C480.272 103.82 479.124 103.507 478.081 103.298C476.412 102.984 474.743 102.776 473.074 102.567C470.049 102.253 466.92 102.149 463.999 102.253C463.478 102.253 462.956 102.253 462.435 102.253C461.6 102.253 460.766 102.358 459.931 102.462C459.41 102.462 458.993 102.462 458.575 102.567C458.054 102.567 457.532 102.671 457.115 102.776C454.194 103.193 451.378 103.82 448.562 104.656C447.936 104.865 447.206 105.074 446.58 105.283C445.432 105.701 444.389 106.119 443.242 106.536C442.094 106.954 441.051 107.477 440.008 107.895C438.965 108.417 437.818 108.939 436.775 109.462C435.419 110.193 434.063 110.924 432.811 111.76C431.559 112.491 430.412 113.327 429.16 114.163C427.7 115.207 426.344 116.252 425.092 117.401C423.736 118.55 422.484 119.7 421.337 120.953C420.92 121.371 420.398 121.894 419.981 122.311C416.747 125.759 413.827 129.624 411.427 133.699C420.502 116.148 434.063 101.731 450.439 91.7017C450.752 91.4927 451.169 91.1793 451.587 90.9704C451.587 90.9704 452.317 90.5525 452.734 90.3436C462.956 84.1798 474.326 79.8965 486.113 77.5982C486.53 77.4937 487.052 77.3892 487.469 77.2848C487.886 77.2848 488.408 77.1803 488.825 77.0759C500.716 75.0909 513.129 74.9864 525.646 77.2848C556.626 82.8217 582.182 101.208 597.619 125.968L673.035 248.198L673.87 249.452L710.691 308.999L716.428 318.193L721.017 325.715L721.226 326.028C733.013 342.743 751.58 357.265 773.276 361.13C787.462 363.637 801.127 360.19 813.748 355.593C814.165 355.489 814.687 355.28 815 355.175L731.97 220.722L731.24 219.573L675.017 128.475L675.017 128.371L664.482 111.238C661.352 106.223 657.91 101.313 654.051 96.8207C633.085 71.1211 603.356 52.5254 568.204 46.2572C561.111 45.0035 554.123 44.2722 547.134 44.0633C522.621 43.332 498.943 48.9734 478.081 59.7338C477.664 59.9428 477.351 60.1517 476.934 60.3607C476.516 60.5696 476.204 60.7785 475.786 60.9875C465.355 66.5244 455.655 73.3149 446.997 81.2547C446.684 81.4636 446.371 81.777 446.058 82.0904C446.058 82.0904 445.328 82.7173 445.015 83.0307C427.491 99.4325 414.035 120.222 406.421 144.25C406.421 144.25 406.421 144.459 406.316 144.564C406.316 144.564 406.316 144.668 406.316 144.772C406.316 144.981 406.212 145.19 406.108 145.504C405.69 146.653 405.378 147.907 404.96 149.056C404.439 150.727 403.917 152.294 403.5 153.966C412.053 134.639 433.332 122.625 455.029 126.49C455.655 126.595 456.28 126.699 456.802 126.908C457.428 127.013 458.054 127.222 458.575 127.326C459.514 127.535 460.349 127.848 461.287 128.162C462.122 128.475 463.061 128.789 463.895 129.102C464.417 129.311 464.938 129.52 465.355 129.729C465.355 129.729 465.46 129.729 465.564 129.729C466.607 130.147 467.65 130.669 468.589 131.191C469.006 131.4 469.319 131.609 469.736 131.818C471.718 132.863 473.491 134.012 475.16 135.37C476.829 136.624 478.29 137.982 479.75 139.445C480.897 140.385 481.836 141.534 482.775 142.683C483.505 143.519 484.235 144.459 484.965 145.504L485.696 146.548C485.696 146.548 486.217 147.28 486.426 147.698C486.843 148.324 487.26 148.951 487.573 149.578L519.7 201.709L519.909 202.022L564.241 273.793L581.66 302.209L582.912 304.194L586.563 310.149L587.084 310.88C587.084 310.88 587.084 310.88 587.084 310.984L588.545 313.387C589.066 314.327 589.692 315.268 590.318 316.208C591.361 317.671 592.508 319.133 593.76 320.387C594.073 320.805 594.386 321.118 594.699 321.431C595.22 322.058 595.742 322.581 596.263 323.103C596.263 323.103 596.368 323.207 596.472 323.207C601.375 327.804 607.529 330.938 614.1 332.087C615.456 332.296 616.812 332.505 618.377 332.61C619.003 332.61 619.629 332.61 620.255 332.61L620.15 333.028Z" fill="#1E9B97"/>
</g>
<defs>
<clipPath id="clip0_26_554">
<rect width="294" height="826" fill="white" transform="translate(0 294) rotate(-90)"/>
</clipPath>
</defs>
</svg>
