<svg width="196" height="71" viewBox="0 0 196 71" fill="none" xmlns="http://www.w3.org/2000/svg">
<g clip-path="url(#clip0_147_889)">
<path d="M35.1403 17.656C35.1403 16.9999 34.9299 16.3658 34.5398 15.8366C34.5398 15.8278 34.531 15.8147 34.5222 15.8103L34.4828 15.8366L34.3337 15.9372L34.3118 15.9459L34.1979 16.0159L32.804 16.8731L32.6111 16.9912L32.5147 17.0524L29.8146 18.7187L29.2624 19.0599L29.2273 19.0818L29.1002 19.1648L29.0783 19.1736L29.0564 19.1823L28.5567 19.4929L28.4602 19.5497L27.417 20.1926L17.1428 26.5299C17.1428 26.5299 17.1252 26.543 17.1165 26.5474L16.8316 26.7179C16.8316 26.7179 16.8096 26.7267 16.8053 26.7354C16.5203 26.9191 16.2574 27.1291 16.0163 27.3652C16.0075 27.3652 16.0075 27.3652 16.0075 27.374C16.0075 27.374 16.0075 27.3784 16.0031 27.374C15.9067 27.4746 15.8015 27.5708 15.7051 27.6758C15.7051 27.6758 15.7036 27.6787 15.7007 27.6845C15.7007 27.6845 15.6832 27.7064 15.6788 27.7151C15.6218 27.772 15.5692 27.8332 15.5166 27.8988L15.407 28.0344C15.3106 28.1525 15.2229 28.2793 15.1352 28.4061C15.052 28.533 14.9687 28.6642 14.8986 28.7998C14.8635 28.8697 14.8284 28.9397 14.789 29.0053C14.7539 29.0753 14.7232 29.1453 14.6882 29.2152C14.6356 29.329 14.5873 29.4427 14.5479 29.5564C14.5304 29.6001 14.5128 29.6438 14.4997 29.6876C14.4646 29.7794 14.4339 29.88 14.4033 29.9762C14.3989 29.985 14.3945 29.9981 14.3945 30.0068C14.3682 30.0943 14.3507 30.1818 14.3287 30.2693C14.3068 30.3699 14.2849 30.4748 14.263 30.5754C14.2367 30.7285 14.2148 30.8772 14.2016 31.0259C14.1709 31.3058 14.1622 31.5813 14.1753 31.8525C14.1753 31.9006 14.1841 31.9487 14.1841 31.9968C14.1885 32.0712 14.1929 32.1499 14.206 32.2242C14.206 32.268 14.206 32.3117 14.2148 32.3511C14.2192 32.3992 14.2279 32.4429 14.2367 32.4823C14.2761 32.7447 14.3331 33.0027 14.412 33.2564C14.4296 33.3176 14.4471 33.3745 14.469 33.4357C14.5041 33.5363 14.5435 33.6369 14.5786 33.7375C14.618 33.8381 14.6619 33.9343 14.7057 34.0349C14.7539 34.1355 14.7977 34.2317 14.846 34.3235C14.9073 34.446 14.9818 34.5684 15.0564 34.6865C15.1265 34.8002 15.201 34.9052 15.2755 35.0145C15.3676 35.1458 15.4684 35.2726 15.5692 35.3863C15.67 35.5088 15.7796 35.6225 15.8892 35.7318C15.9286 35.7712 15.9724 35.8149 16.0163 35.8543C16.3275 36.1517 16.6781 36.4097 17.0551 36.6328C15.4596 35.8105 14.1534 34.5816 13.2417 33.0946C13.2198 33.064 13.1979 33.0246 13.1803 32.994C13.1628 32.959 13.1409 32.924 13.1277 32.889C12.5711 31.9574 12.181 30.9297 11.9706 29.8538C11.9574 29.8144 11.953 29.7707 11.9443 29.7313C11.9355 29.692 11.9311 29.6482 11.9224 29.6089C11.7426 28.533 11.7339 27.4046 11.9399 26.2631C12.444 23.4465 14.1096 21.1329 16.3582 19.7247L27.4609 12.8757L27.5792 12.8014L32.9925 9.46434L33.8297 8.94827L34.5091 8.53715L34.5354 8.51966C36.0564 7.44814 37.3713 5.76433 37.722 3.78749C37.9543 2.4973 37.6343 1.25959 37.2179 0.109348C37.2048 0.0699861 37.1916 0.0306243 37.1785 -0.00436401L24.9624 7.53124L24.8616 7.59247L16.5861 12.692L16.5773 12.7008L15.0257 13.6629C14.5654 13.9516 14.1271 14.2621 13.7151 14.6076C11.3832 16.5057 9.69568 19.213 9.12586 22.4013C9.01189 23.0398 8.94615 23.6827 8.92423 24.3169C8.86286 26.543 9.36693 28.686 10.3444 30.5885C10.3619 30.6235 10.3795 30.6541 10.397 30.6935C10.4145 30.7285 10.4321 30.7591 10.454 30.7985C10.9537 31.7431 11.5717 32.6222 12.2905 33.4138C12.3125 33.4401 12.3431 33.4707 12.3651 33.4969C12.3914 33.5319 12.422 33.5582 12.4483 33.5888C13.9386 35.1764 15.8322 36.401 18.0063 37.0876C18.015 37.0876 18.0282 37.0964 18.0369 37.0964C18.0413 37.0964 18.0501 37.0964 18.0545 37.1051C18.0764 37.1051 18.0939 37.1182 18.1158 37.127C18.2254 37.162 18.3306 37.1926 18.4446 37.2276C18.5936 37.2757 18.7383 37.3238 18.8961 37.3588C17.1384 36.5803 16.047 34.6515 16.402 32.6791C16.4108 32.6222 16.4195 32.5697 16.4371 32.5173C16.4458 32.4604 16.4634 32.4079 16.4765 32.3554C16.494 32.2723 16.5203 32.1936 16.5466 32.1149C16.5729 32.0362 16.5992 31.9531 16.6299 31.8787C16.6475 31.835 16.665 31.7869 16.6869 31.7431C16.6869 31.7388 16.6869 31.73 16.6957 31.7213C16.7351 31.6251 16.7833 31.5332 16.8316 31.4414C16.8491 31.4064 16.8666 31.3714 16.8885 31.3364C16.985 31.1615 17.0902 30.9953 17.2129 30.8422C17.3312 30.6935 17.454 30.5535 17.5811 30.4267H17.5855C17.6731 30.3261 17.7739 30.2343 17.8791 30.1555C17.958 30.0899 18.0413 30.0243 18.1334 29.9587L18.2298 29.8931C18.2605 29.8713 18.2999 29.8494 18.3306 29.8275C18.3876 29.7925 18.449 29.7532 18.5059 29.7226L23.2398 26.801L23.2705 26.7836L29.7883 22.7555L32.3657 21.1723L32.541 21.063L33.0758 20.7349H33.0801L33.1503 20.6868C33.1503 20.6825 33.1547 20.6868 33.159 20.6781L33.3826 20.5425C33.4703 20.4944 33.5579 20.4375 33.6368 20.3807C33.7727 20.2888 33.8998 20.1839 34.0138 20.0658C34.0488 20.0396 34.0751 20.0089 34.1058 19.9827C34.1628 19.9346 34.211 19.8865 34.2592 19.8384C34.2636 19.8384 34.2724 19.8253 34.2724 19.8209C34.6932 19.3748 34.9737 18.8193 35.0789 18.2202C35.1008 18.1021 35.114 17.9752 35.1227 17.8309C35.1227 17.7741 35.1315 17.7128 35.1227 17.656H35.1403Z" fill="#1B9B97"/>
<path d="M2.65623 53.3441C2.65623 54.0001 2.86662 54.6342 3.25673 55.1634C3.25673 55.1722 3.26549 55.1853 3.27426 55.1897L3.31371 55.1634L3.46274 55.0629L3.48465 55.0541L3.59862 54.9841L4.99248 54.1269L5.18534 54.0088L5.28177 53.9476L7.98184 52.2813L8.53412 51.9401L8.56919 51.9183L8.6963 51.8352L8.71822 51.8264L8.74013 51.8177L9.23982 51.5072L9.33625 51.4503L10.3795 50.8074L20.6537 44.4701C20.6537 44.4701 20.6713 44.457 20.68 44.4527L20.9649 44.2821C20.9649 44.2821 20.9868 44.2733 20.9912 44.2646C21.2761 44.0809 21.5391 43.871 21.7802 43.6348C21.789 43.6348 21.789 43.6348 21.789 43.6261C21.789 43.6261 21.789 43.6217 21.7934 43.6261C21.8898 43.5255 21.995 43.4292 22.0914 43.3243C22.0914 43.3243 22.0929 43.3214 22.0958 43.3155C22.0958 43.3155 22.1133 43.2937 22.1177 43.2849C22.1747 43.2281 22.2273 43.1668 22.2799 43.1012L22.3895 42.9656C22.4859 42.8476 22.5736 42.7207 22.6612 42.5939C22.7445 42.4671 22.8278 42.3359 22.8979 42.2003C22.933 42.1303 22.9681 42.0603 23.0075 41.9947C23.0426 41.9247 23.0733 41.8548 23.1083 41.7848C23.1609 41.6711 23.2091 41.5574 23.2486 41.4437C23.2661 41.3999 23.2837 41.3562 23.2968 41.3125C23.3319 41.2206 23.3625 41.12 23.3932 41.0238C23.3976 41.0151 23.402 41.0019 23.402 40.9932C23.4283 40.9057 23.4458 40.8182 23.4677 40.7308C23.4897 40.6302 23.5116 40.5252 23.5335 40.4246C23.5598 40.2715 23.5817 40.1228 23.5949 39.9741C23.6255 39.6942 23.6343 39.4187 23.6212 39.1476C23.6212 39.0994 23.6124 39.0513 23.6124 39.0032C23.608 38.9289 23.6036 38.8502 23.5905 38.7758C23.5905 38.7321 23.5905 38.6883 23.5817 38.649C23.5773 38.6009 23.5686 38.5571 23.5598 38.5178C23.5203 38.2553 23.4634 37.9973 23.3845 37.7436C23.3669 37.6824 23.3494 37.6256 23.3275 37.5643C23.2924 37.4637 23.253 37.3631 23.2179 37.2626C23.1785 37.162 23.1346 37.0657 23.0908 36.9652C23.0426 36.8646 22.9987 36.7683 22.9505 36.6765C22.8892 36.554 22.8146 36.4316 22.7401 36.3135C22.67 36.1998 22.5955 36.0948 22.521 35.9855C22.4289 35.8543 22.3281 35.7274 22.2273 35.6137C22.1265 35.4913 20.7414 34.3673 21.9073 35.2682C21.9512 35.3032 21.824 35.1851 21.7802 35.1458C21.469 34.8484 21.1183 34.5903 20.7414 34.3673C22.3369 35.1895 23.6431 36.4185 24.5548 37.9055C24.5767 37.9361 24.5986 37.9754 24.6161 38.0061C24.6337 38.041 24.6556 38.076 24.6687 38.111C25.2254 39.0426 25.6155 40.0704 25.8259 41.1463C25.8391 41.1856 25.8435 41.2294 25.8522 41.2687C25.861 41.3081 25.8654 41.3518 25.8741 41.3912C26.0538 42.4671 26.0626 43.5954 25.8566 44.7369C25.3525 47.5535 23.6869 49.8671 21.4383 51.2754L10.3356 58.1243L10.2173 58.1987L4.804 61.5357L3.96681 62.0518L3.28741 62.4629L3.26111 62.4804C1.74013 63.5519 0.425167 65.2357 0.0745098 67.2125C-0.157801 68.5027 0.162174 69.7404 0.57858 70.8907C0.59173 70.93 0.604879 70.9694 0.618029 71.0044L12.8341 63.4688L12.9349 63.4076L21.2104 58.308L21.2192 58.2993L22.7708 57.3371C23.2311 57.0484 23.6694 56.7379 24.0814 56.3924C26.4133 54.4943 28.1008 51.7871 28.6706 48.5988C28.7846 47.9602 28.8503 47.3173 28.8723 46.6832C28.9336 44.457 28.4296 42.314 27.4521 40.4115C27.4346 40.3765 27.417 40.3459 27.3995 40.3065C27.382 40.2716 27.3644 40.2409 27.3425 40.2016C26.8428 39.2569 26.2248 38.3778 25.5059 37.5862C25.484 37.56 25.4533 37.5293 25.4314 37.5031C25.4051 37.4681 25.3744 37.4419 25.3481 37.4113C23.8579 35.8237 21.9643 34.5991 19.7902 33.9124C19.7815 33.9124 19.7683 33.9037 19.7595 33.9037C19.7552 33.9037 19.7464 33.9037 19.742 33.8949C19.7201 33.8949 19.7026 33.8818 19.6806 33.8731C19.5711 33.8381 19.4659 33.8075 19.3519 33.7725C19.2029 33.7244 19.0582 33.6763 18.9004 33.6413C20.6581 34.4198 21.7495 36.3485 21.3945 38.321C21.3857 38.3778 21.377 38.4303 21.3594 38.4828C21.3507 38.5396 21.3331 38.5921 21.32 38.6446C21.3024 38.7277 21.2761 38.8064 21.2498 38.8851C21.2235 38.9639 21.1972 39.047 21.1666 39.1213C21.149 39.165 21.1315 39.2132 21.1096 39.2569C21.1096 39.2613 21.1096 39.27 21.1008 39.2788C21.0614 39.375 21.0131 39.4668 20.9649 39.5587C20.9474 39.5936 20.9299 39.6286 20.9079 39.6636C20.8115 39.8386 20.7063 40.0048 20.5836 40.1578C20.4652 40.3065 20.3425 40.4465 20.2154 40.5733H20.211C20.1234 40.6739 20.0225 40.7658 19.9173 40.8445C19.8384 40.9101 19.7552 40.9757 19.6631 41.0413L19.5667 41.1069C19.536 41.1288 19.4965 41.1506 19.4659 41.1725C19.4089 41.2075 19.3475 41.2468 19.2905 41.2775L14.5567 44.199L14.526 44.2165L8.00814 48.2445L5.4308 49.8277L5.25547 49.9371L4.72072 50.2651H4.71634L4.64621 50.3132C4.64621 50.3176 4.64182 50.3132 4.63744 50.3219L4.4139 50.4575C4.32623 50.5056 4.23857 50.5625 4.15967 50.6193C4.02379 50.7112 3.89668 50.8161 3.78271 50.9342C3.74765 50.9605 3.72135 50.9911 3.69067 51.0173C3.63368 51.0654 3.58547 51.1136 3.53725 51.1617C3.53287 51.1617 3.5241 51.1748 3.5241 51.1791C3.10331 51.6252 2.82279 52.1807 2.71759 52.7799C2.69567 52.898 2.68252 53.0248 2.67376 53.1691C2.67376 53.226 2.66499 53.2872 2.67376 53.3441H2.65623Z" fill="#1B9B97"/>
<path d="M57.8672 36.7421C57.0783 40.9494 54.4746 44.0109 47.7332 44.0109C42.3024 44.0109 39.3087 42.7994 40.2599 36.7421H45.3269C44.9937 38.5265 46.1772 39.165 48.4258 39.165C51.0031 39.165 52.4496 38.5877 52.6863 37.3194C53.0194 35.5306 50.5341 35.6837 47.7815 35.4694C44.0996 35.1982 40.8823 34.2273 41.7238 29.7138C42.6882 24.5662 46.1509 22.445 51.551 22.445C56.9511 22.445 59.4408 24.7149 58.5861 30.1074H53.5147C53.9223 27.925 53.164 27.2909 50.8234 27.2909C48.6975 27.2909 47.3388 27.8988 47.1064 29.1409C46.7777 30.8991 48.9211 30.9559 51.6869 31.109C56.2148 31.4108 58.6036 32.7447 57.8585 36.7421H57.8672Z" fill="#231F20"/>
<path d="M81.6243 22.6287L77.6575 43.8272H71.9505L72.608 40.3153H65.9893L64.6612 42.5545C64.1922 43.3461 63.3419 43.8316 62.4214 43.8316H57.3807L66.6775 28.3886C69.4915 23.7265 71.0038 22.6331 75.9217 22.6331H81.6287L81.6243 22.6287ZM81.6243 22.6287L77.6575 43.8272L81.6243 22.6287ZM75.01 27.4746C73.695 27.6845 72.7702 28.9003 71.1791 31.5638L68.8647 35.5H73.511L75.0144 27.4746H75.01Z" fill="#231F20"/>
<path d="M99.8672 43.8272C98.6443 44.0372 97.6187 44.1596 96.7683 44.1596C93.551 44.1596 92.6262 42.6158 91.355 39.6768L90.6756 38.1023H88.0939L87.4189 41.7104C87.191 42.935 86.1171 43.8229 84.8679 43.8229H81.2561L85.2229 22.6243H97.0313C101.761 22.6549 102.388 27.0766 101.765 30.4092C101.261 33.1033 99.6569 36.4972 96.5185 37.678L99.8629 43.8272H99.8672ZM95.7558 30.4442C96.1459 28.3537 95.4665 27.4483 94.0113 27.4483H90.0927L89.0056 33.2651H92.9242C94.2918 33.2651 95.3657 32.5391 95.7602 30.4486L95.7558 30.4442Z" fill="#231F20"/>
<path d="M124.948 22.6287L120.981 43.8272H115.274L115.932 40.3153H109.313L107.989 42.5502C107.52 43.3418 106.666 43.8316 105.741 43.8316H100.704L110.001 28.3886C112.815 23.7265 114.327 22.6331 119.245 22.6331H124.952L124.948 22.6287ZM118.334 27.4746C117.019 27.6845 116.094 28.9003 114.503 31.5638L112.188 35.5H116.835L118.338 27.4746H118.334Z" fill="#231F20"/>
<path d="M148.793 22.6287L139.47 38.076C136.656 42.7382 135.174 43.8316 130.23 43.8316H124.554L128.126 24.7542C128.358 23.5209 129.432 22.6287 130.69 22.6287H134.232L131.238 38.6184C132.54 38.4653 133.408 37.56 134.968 34.8921L141.499 23.9233C141.977 23.1185 142.849 22.6243 143.787 22.6243H148.797L148.793 22.6287Z" fill="#231F20"/>
<path d="M146.667 43.8272L150.239 24.7367C150.467 23.5165 151.537 22.6287 152.781 22.6287H156.398L152.431 43.8272H146.662H146.667Z" fill="#231F20"/>
<path d="M174.36 37.923C173.817 40.8314 171.463 43.8272 167.974 43.8272H156.016L159.584 24.7674C159.817 23.5253 160.904 22.6243 162.166 22.6243H170.91C174.43 22.6243 175.697 25.2616 175.158 28.135C174.755 30.2868 173.742 31.8 171.971 32.6791C174.119 33.5276 174.838 35.3732 174.36 37.9186V37.923ZM164.248 30.6235H167.132C168.167 30.6235 169.091 30.383 169.346 29.0184C169.595 27.6845 168.758 27.444 167.728 27.444H164.844L164.248 30.6235ZM168.894 36.952C169.126 35.71 168.469 35.1676 167.549 35.0758H163.42L162.683 39.012H166.602C167.605 39.012 168.644 38.3166 168.899 36.952H168.894Z" fill="#231F20"/>
<path d="M184.639 28.3537L184.178 30.8072H194.4L193.887 33.5363C193.659 34.7653 192.585 35.6531 191.332 35.6531H183.267L182.807 38.1066C182.684 38.7714 182.789 39.0163 183.517 39.0163H192.927L192.428 41.6886C192.195 42.9307 191.108 43.8316 189.842 43.8316H179.462C176.819 43.8316 176.205 42.5895 176.661 40.136L179.239 26.3549C179.703 23.8708 180.786 22.6287 183.429 22.6287H195.996L195.496 25.3053C195.264 26.543 194.181 27.444 192.914 27.444H185.686C184.959 27.444 184.761 27.6845 184.639 28.3537Z" fill="#231F20"/>
<path d="M68.8603 51.0479H71.8497C73.0463 51.0479 73.809 52.0101 73.5548 53.2041C73.3005 54.3806 72.1127 55.3603 70.9336 55.3603H69.154L68.571 58.1068H67.3657L68.8647 51.0523L68.8603 51.0479ZM71.1922 54.1488C71.7226 54.1488 72.2398 53.7245 72.3538 53.1997C72.4677 52.6749 72.1258 52.2507 71.5999 52.2507H69.8203L69.4126 54.1532H71.1966L71.1922 54.1488Z" fill="#1B9B97"/>
<path d="M74.9267 56.4361C74.7558 55.9069 74.7207 55.2684 74.8697 54.573C75.2642 52.7361 76.8948 50.9605 78.8672 50.9605C80.8397 50.9605 81.7251 52.7361 81.3394 54.573C80.9536 56.388 79.2836 58.1856 77.3331 58.1856C76.1058 58.1856 75.2774 57.4814 74.9267 56.4361ZM80.0858 54.573C80.3663 53.2566 79.9148 52.1632 78.613 52.1632C77.3112 52.1632 76.4082 53.2522 76.1233 54.573C75.8428 55.8895 76.2855 56.9828 77.5829 56.9828C78.8804 56.9828 79.7965 55.8895 80.0814 54.573H80.0858Z" fill="#1B9B97"/>
<path d="M91.5172 51.0479H92.7708L89.3387 58.1025H87.9054L87.603 53.7289L85.2448 58.1025H83.8115L83.5967 51.0479H84.8503L84.9555 56.4186L87.7651 51.0479H88.6111L88.9311 56.4274L91.5128 51.0479H91.5172Z" fill="#1B9B97"/>
<path d="M94.8484 51.0479H99.6174L99.3631 52.2507H95.7996L95.4314 53.9738H98.675L98.4207 55.1766H95.1772L94.809 56.8997H98.3725L98.1183 58.1025H93.3494L94.8484 51.0479Z" fill="#1B9B97"/>
<path d="M104.627 55.4608L105.535 58.1025H104.176L103.44 56.025C103.365 55.7976 103.168 55.6576 102.931 55.6489H102.028L101.498 58.1025H100.292L101.791 51.0479H104.627C105.25 51.0479 105.776 51.2841 106.118 51.7258C106.46 52.1588 106.582 52.7318 106.46 53.3441C106.254 54.3062 105.517 55.076 104.632 55.4608H104.627ZM102.282 54.4418H103.913C104.535 54.4418 105.118 53.9345 105.254 53.3397C105.377 52.7361 104.991 52.2463 104.378 52.2463H102.747L102.282 54.4374V54.4418Z" fill="#1B9B97"/>
<path d="M113.262 51.0479H114.468L112.969 58.1025H111.763L113.262 51.0479Z" fill="#1B9B97"/>
<path d="M121.003 51.0479H122.209L120.709 58.1025H119.701L117.523 53.4753L116.532 58.1025H115.327L116.826 51.0479H117.843L120.021 55.6751L121.003 51.0479Z" fill="#1B9B97"/>
<path d="M134.262 51.0479H135.402L133.903 58.1025H132.698L133.688 53.4621L130.87 56.8604L129.511 53.4621L128.52 58.1025H127.315L128.814 51.0479H129.945L131.361 54.5643L134.267 51.0479H134.262Z" fill="#1B9B97"/>
<path d="M136.699 56.4361C136.528 55.9069 136.493 55.2684 136.642 54.573C137.037 52.7361 138.667 50.9605 140.64 50.9605C142.612 50.9605 143.498 52.7361 143.112 54.573C142.726 56.388 141.056 58.1856 139.106 58.1856C137.878 58.1856 137.05 57.4814 136.699 56.4361ZM141.858 54.573C142.139 53.2566 141.688 52.1632 140.386 52.1632C139.084 52.1632 138.181 53.2522 137.896 54.573C137.616 55.8895 138.058 56.9828 139.356 56.9828C140.653 56.9828 141.569 55.8895 141.854 54.573H141.858Z" fill="#1B9B97"/>
<path d="M145.181 51.0479H150.327L150.073 52.2507H148.1L146.855 58.1025H145.65L146.895 52.2507H144.922L145.177 51.0479H145.181Z" fill="#1B9B97"/>
<path d="M152.312 51.0479H153.518L152.019 58.1025H150.813L152.312 51.0479Z" fill="#1B9B97"/>
<path d="M154.811 56.4361C154.64 55.9069 154.605 55.2684 154.754 54.573C155.148 52.7361 156.779 50.9605 158.751 50.9605C160.724 50.9605 161.609 52.7361 161.224 54.573C160.838 56.388 159.168 58.1856 157.217 58.1856C155.99 58.1856 155.162 57.4814 154.811 56.4361ZM159.966 54.573C160.246 53.2566 159.795 52.1632 158.493 52.1632C157.191 52.1632 156.288 53.2522 156.003 54.573C155.723 55.8895 156.165 56.9828 157.463 56.9828C158.76 56.9828 159.676 55.8895 159.961 54.573H159.966Z" fill="#1B9B97"/>
<path d="M168.127 51.0479H169.332L167.833 58.1025H166.825L164.647 53.4753L163.656 58.1025H162.451L163.95 51.0479H164.967L167.145 55.6751L168.127 51.0479Z" fill="#1B9B97"/>
</g>
<defs>
<clipPath id="clip0_147_889">
<rect width="196" height="71" fill="white"/>
</clipPath>
</defs>
</svg>
