<svg width="40" height="40" viewBox="0 0 40 40" fill="none" xmlns="http://www.w3.org/2000/svg">
<g clip-path="url(#clip0_26_621)">
<path d="M0.590452 15.1966C3.24301 4.47371 14.0841 -2.06314 24.8038 0.590492C35.5254 3.24311 42.0621 14.0825 39.4095 24.8034C36.7559 35.5243 25.9168 42.0632 15.1952 39.4095C4.47661 36.7579 -2.06413 25.9165 0.590452 15.1966Z" fill="#E52A18"/>
<path d="M1.16577 13.2834H38.8343C36.6547 7.18709 31.5603 2.26267 24.8028 0.590476C14.7385 -1.9011 4.56578 3.71103 1.16577 13.2834Z" fill="#E52A18"/>
<path d="M39.5685 24.1106C39.5776 24.0681 39.5857 24.0255 39.5948 23.983C39.61 23.9091 39.6242 23.8341 39.6394 23.7602C39.6475 23.7166 39.6556 23.6741 39.6637 23.6305C39.6779 23.5535 39.6921 23.4766 39.7052 23.3996C39.7123 23.3611 39.7194 23.3226 39.7255 23.2831C39.7417 23.1869 39.7569 23.0907 39.7711 22.9945C39.7741 22.9752 39.7771 22.957 39.7802 22.9377C39.7974 22.8223 39.8136 22.7068 39.8288 22.5914C39.8328 22.561 39.8359 22.5306 39.8399 22.4992C39.8511 22.4141 39.8612 22.33 39.8703 22.245C39.8754 22.2044 39.8794 22.1649 39.8835 22.1244C39.8916 22.0485 39.8997 21.9725 39.9068 21.8965C39.9108 21.855 39.9149 21.8125 39.9189 21.771C39.926 21.694 39.9321 21.618 39.9382 21.541C39.9412 21.5026 39.9443 21.4631 39.9473 21.4246C39.9534 21.3364 39.9594 21.2483 39.9645 21.1602C39.9665 21.1339 39.9686 21.1065 39.9696 21.0802C39.9757 20.9647 39.9817 20.8493 39.9858 20.7338C39.9858 20.7146 39.9868 20.6963 39.9878 20.6771C39.9908 20.5819 39.9939 20.4857 39.9959 20.3905C39.9959 20.354 39.9969 20.3175 39.9979 20.2821C39.999 20.2031 40 20.1241 40 20.0461C40 20.0066 40 19.9671 40 19.9276C40 19.8506 40 19.7736 39.9979 19.6967C39.9979 19.6582 39.9969 19.6207 39.9959 19.5822C39.9939 19.4981 39.9919 19.4131 39.9888 19.329C39.9888 19.2996 39.9868 19.2703 39.9858 19.2409C39.9777 19.012 39.9645 18.7841 39.9483 18.5562C39.9463 18.5268 39.9432 18.4964 39.9412 18.4661C39.9351 18.383 39.9281 18.2989 39.921 18.2159C39.9179 18.1794 39.9139 18.144 39.9108 18.1075C39.9037 18.0295 39.8956 17.9505 39.8865 17.8725C39.8825 17.8371 39.8794 17.8006 39.8754 17.7652C39.8663 17.6821 39.8561 17.5991 39.846 17.516C39.842 17.4867 39.8389 17.4583 39.8349 17.4289C39.8055 17.202 39.7721 16.9762 39.7356 16.7513C39.7326 16.7311 39.7285 16.7108 39.7255 16.6906C39.7103 16.5994 39.6951 16.5093 39.6779 16.4181C39.6718 16.3867 39.6667 16.3563 39.6607 16.3249C39.6455 16.2439 39.6303 16.1629 39.6141 16.0818C39.608 16.0494 39.6009 16.017 39.5948 15.9856C39.5776 15.9026 39.5604 15.8195 39.5422 15.7375C39.5361 15.7101 39.53 15.6828 39.5239 15.6544C39.5006 15.5531 39.4784 15.4519 39.4541 15.3506L39.449 15.3283C39.4237 15.2219 39.3973 15.1166 39.37 15.0113C39.2181 14.4248 39.0408 13.8475 38.8383 13.2803H1.16571C0.944916 13.9022 0.752482 14.5393 0.590432 15.1936C-0.0739727 17.8766 -0.161075 20.5677 0.248102 23.1352C0.250127 23.1464 0.252153 23.1585 0.253166 23.1697C0.268358 23.2639 0.28355 23.3571 0.300768 23.4502C0.304819 23.4695 0.307857 23.4897 0.311909 23.509C0.327101 23.5961 0.343306 23.6842 0.360524 23.7713C0.365588 23.7976 0.370652 23.823 0.375716 23.8493C0.391921 23.9313 0.408126 24.0144 0.425344 24.0964C0.43142 24.1278 0.43851 24.1582 0.4456 24.1896C0.462818 24.2676 0.479023 24.3456 0.497253 24.4226C0.505356 24.459 0.514471 24.4945 0.522574 24.5309C0.539791 24.6039 0.555996 24.6768 0.574227 24.7487C0.587394 24.8034 0.601573 24.8581 0.615752 24.9128C0.637021 24.9948 0.657278 25.0769 0.679559 25.1589C0.700828 25.2399 0.72311 25.3209 0.745392 25.401C0.75552 25.4364 0.765648 25.4719 0.775777 25.5073C0.798058 25.5833 0.819327 25.6603 0.842622 25.7362C0.853763 25.7717 0.864904 25.8071 0.875032 25.8426C0.898327 25.9185 0.921622 25.9935 0.945929 26.0694C0.95707 26.1049 0.968211 26.1393 0.979352 26.1738C1.00366 26.2497 1.02898 26.3257 1.05531 26.4006C1.06645 26.4351 1.07861 26.4685 1.09076 26.5029C1.11709 26.5789 1.14343 26.6549 1.17077 26.7308C1.17685 26.748 1.18293 26.7663 1.189 26.7845C1.20622 26.8311 1.22243 26.8787 1.23964 26.9253H38.7552C38.7724 26.8787 38.7876 26.8311 38.8048 26.7845H38.8079C38.8504 26.667 38.8899 26.5495 38.9304 26.431C38.9345 26.4189 38.9385 26.4077 38.9426 26.3966C38.9942 26.2426 39.0449 26.0867 39.0935 25.9307C39.1006 25.9084 39.1077 25.8871 39.1138 25.8648C39.1583 25.719 39.2009 25.5721 39.2424 25.4243C39.2515 25.3929 39.2606 25.3625 39.2697 25.3311C39.3183 25.1548 39.3649 24.9786 39.4085 24.8004C39.4368 24.6849 39.4642 24.5704 39.4905 24.455C39.4986 24.4185 39.5067 24.381 39.5148 24.3446C39.532 24.2656 39.5493 24.1866 39.5665 24.1076" fill="#FFD300"/>
</g>
<defs>
<clipPath id="clip0_26_621">
<rect width="40" height="40" fill="white"/>
</clipPath>
</defs>
</svg>
