<svg width="40" height="40" viewBox="0 0 40 40" fill="none" xmlns="http://www.w3.org/2000/svg">
<g clip-path="url(#clip0_26_559)">
<path d="M0.590452 15.1964C3.24301 4.47347 14.0852 -2.06339 24.8038 0.590248C35.5254 3.24287 42.0621 14.0823 39.4095 24.8031C36.7559 35.524 25.9168 42.0629 15.1952 39.4093C4.47661 36.7577 -2.06413 25.9163 0.590452 15.1964Z" fill="#F6F6F6"/>
<path d="M38.494 12.3951H23.003V15.4569H39.4774C39.2323 14.4076 38.9011 13.3847 38.494 12.3951ZM34.54 6.26947H23.003V9.33431H36.913C36.2243 8.24146 35.4292 7.21444 34.54 6.26947ZM5.55835 33.8318H34.4448C35.3391 32.9 36.1473 31.876 36.8532 30.77H3.15394C3.85278 31.8629 4.65797 32.8889 5.55835 33.8318ZM24.8038 0.589471C24.2032 0.440584 23.6026 0.323095 23.003 0.230927V3.20766H30.8655C29.0526 2.03479 27.0178 1.13742 24.8038 0.589471ZM39.9453 18.5187H23.004V21.5836H39.9342C40.0173 20.5525 40.0193 19.5285 39.9453 18.5187ZM1.54964 27.7092H38.4525C38.8394 26.7804 39.1604 25.8101 39.4096 24.8034C39.4227 24.7507 39.4339 24.698 39.447 24.6444H0.547974C0.800164 25.6947 1.1354 26.7197 1.54964 27.7082M15.1963 39.4085C16.3792 39.7012 17.5642 39.8815 18.7391 39.9575H21.2843C24.6681 39.7407 27.9 38.6641 30.6963 36.8936H9.29462C11.067 38.0159 13.0471 38.8778 15.1963 39.4085Z" fill="#E52A18"/>
<path d="M21.4878 20.4603L21.0564 20.1453L20.6229 20.4603L20.788 19.9529L20.3565 19.6379H20.8903L21.0564 19.1305L21.2194 19.6379H21.7542L21.3227 19.9529L21.4878 20.4603ZM19.3629 4.34507L19.527 4.85554L19.0956 4.54055L18.6631 4.85554L18.8292 4.34507L18.3967 4.03311H18.9305L19.0966 3.52264L19.2617 4.03311H19.7964L19.3639 4.34507H19.3629ZM19.3629 8.94943L19.527 9.45686L19.0956 9.14187L18.6631 9.45686L18.8292 8.94943L18.3967 8.63444H18.9305L19.0966 8.127L19.2617 8.63444H19.7964L19.3639 8.94943H19.3629ZM19.3234 13.4596L19.4885 13.967L19.0561 13.652L18.6246 13.967L18.7897 13.4596L18.3562 13.1446H18.891L19.0561 12.6372L19.2201 13.1446H19.7549L19.3234 13.4596ZM19.449 18.4255L19.0166 18.1105L18.5851 18.4255L18.7492 17.9181L18.3167 17.6031H18.8515L19.0166 17.0957L19.1806 17.6031H19.7154L19.2829 17.9181L19.449 18.4255ZM17.3231 6.57534L17.4892 7.08277L17.0578 6.77081L16.6233 7.08277L16.7894 6.57534L16.3579 6.26034H16.8917L17.0578 5.75291L17.2208 6.26034H17.7546L17.3231 6.57534ZM17.3231 11.0369L17.4892 11.5443L17.0578 11.2293L16.6233 11.5443L16.7894 11.0369L16.3579 10.7219H16.8917L17.0578 10.2145L17.2208 10.7219H17.7546L17.3231 11.0369ZM17.3231 15.5967L17.4892 16.1072L17.0578 15.7922L16.6233 16.1072L16.7894 15.5967L16.3579 15.2847H16.8917L17.0578 14.7743L17.2208 15.2847H17.7546L17.3231 15.5967ZM17.4902 20.4603L17.0588 20.1453L16.6243 20.4603L16.7904 19.9529L16.3589 19.6379H16.8927L17.0588 19.1305L17.2218 19.6379H17.7556L17.3241 19.9529L17.4902 20.4603ZM15.3644 4.34507L15.5305 4.85554L15.098 4.54055L14.6645 4.85554L14.8306 4.34507L14.3991 4.03311H14.9329L15.098 3.52264L15.2631 4.03311H15.7978L15.3654 4.34507H15.3644ZM15.3644 8.94943L15.5305 9.45686L15.098 9.14187L14.6645 9.45686L14.8306 8.94943L14.3991 8.63444H14.9329L15.098 8.127L15.2631 8.63444H15.7978L15.3654 8.94943H15.3644ZM15.3269 13.4596L15.492 13.967L15.0585 13.652L14.627 13.967L14.7921 13.4596L14.3596 13.1446H14.8934L15.0595 12.6372L15.2246 13.1446H15.7594L15.3279 13.4596H15.3269ZM15.4504 18.4255L15.019 18.1105L14.5865 18.4255L14.7506 17.9181L14.3191 17.6031H14.8529L15.019 17.0957L15.1841 17.6031H15.7178L15.2864 17.9181L15.4515 18.4255H15.4504ZM13.3266 2.11784L13.4917 2.62527L13.0602 2.31028L12.6267 2.62527L12.7918 2.11784L12.3604 1.80284H12.8951L13.0602 1.29541L13.2253 1.80284H13.7601L13.3276 2.11784H13.3266ZM13.3266 6.57534L13.4917 7.08277L13.0602 6.77081L12.6267 7.08277L12.7918 6.57534L12.3604 6.26034H12.8951L13.0602 5.75291L13.2253 6.26034H13.7601L13.3276 6.57534H13.3266ZM13.3266 11.0369L13.4917 11.5443L13.0602 11.2293L12.6267 11.5443L12.7918 11.0369L12.3604 10.7219H12.8951L13.0602 10.2145L13.2253 10.7219H13.7601L13.3276 11.0369H13.3266ZM13.3266 15.5967L13.4917 16.1072L13.0602 15.7922L12.6267 16.1072L12.7918 15.5967L12.3604 15.2847H12.8951L13.0602 14.7743L13.2253 15.2847H13.7601L13.3276 15.5967H13.3266ZM13.4917 20.4603L13.0602 20.1453L12.6267 20.4603L12.7918 19.9529L12.3604 19.6379H12.8951L13.0602 19.1305L13.2253 19.6379H13.7601L13.3276 19.9529L13.4927 20.4603H13.4917ZM11.3668 4.18504L11.5329 4.69551L11.0984 4.38052L10.6669 4.69551L10.833 4.18504L10.4006 3.87309H10.9343L11.0994 3.36565L11.2655 3.87309H11.7993L11.3678 4.18504H11.3668ZM11.3668 8.78839L11.5329 9.29582L11.0984 8.98386L10.6669 9.29582L10.833 8.78839L10.4006 8.4734H10.9343L11.0994 7.96596L11.2655 8.4734H11.7993L11.3678 8.78839H11.3668ZM11.3263 13.2996L11.4924 13.807L11.0609 13.492L10.6264 13.807L10.7925 13.2996L10.3611 12.9846H10.8948L11.0609 12.4771L11.224 12.9846H11.7587L11.3263 13.2996ZM11.4529 18.2675L11.0204 17.9525L10.5889 18.2675L10.754 17.7571L10.3205 17.4451H10.8543L11.0204 16.9377L11.1855 17.4451H11.7203L11.2888 17.7571L11.4539 18.2675H11.4529ZM9.32901 6.57534L9.49511 7.08277L9.06365 6.77081L8.62915 7.08277L8.79525 6.57534L8.3638 6.26034H8.89552L9.06264 5.75291L9.2257 6.26034H9.75945L9.32799 6.57534H9.32901ZM9.32901 11.0369L9.49511 11.5443L9.06365 11.2293L8.62915 11.5443L8.79525 11.0369L8.3638 10.7219H8.89552L9.06264 10.2145L9.2257 10.7219H9.75945L9.32799 11.0369H9.32901ZM9.32901 15.5967L9.49511 16.1072L9.06365 15.7922L8.62915 16.1072L8.79525 15.5967L8.3638 15.2847H8.89552L9.06264 14.7743L9.2257 15.2847H9.75945L9.32799 15.5967H9.32901ZM9.49511 20.4603L9.06365 20.1453L8.62915 20.4603L8.79525 19.9529L8.3638 19.6379H8.89552L9.06264 19.1305L9.2257 19.6379H9.75945L9.32799 19.9529L9.49409 20.4603H9.49511ZM7.37023 8.74483L7.53532 9.25227L7.10386 8.93727L6.67037 9.25227L6.83647 8.74483L6.404 8.42984H6.93877L7.10386 7.92241L7.26793 8.42984H7.80371L7.37124 8.74483H7.37023ZM7.33073 13.256L7.49582 13.7634L7.06436 13.4485L6.63087 13.7634L6.79596 13.256L6.3645 12.941H6.89826L7.06436 12.4336L7.22742 12.941H7.76218L7.33073 13.256ZM7.45429 18.2209L7.02283 17.906L6.59137 18.2209L6.75545 17.7135L6.32197 17.3985H6.85673L7.02182 16.8911L7.18792 17.3985H7.72167L7.28819 17.7135L7.45328 18.2209H7.45429ZM16.8917 1.80284L17.0578 1.29541L17.2208 1.80284H17.7546L17.3231 2.11784L17.4892 2.62527L17.0578 2.31028L16.6233 2.62527L16.7894 2.11784L16.3579 1.80284H16.8917ZM20.8892 15.2847L21.0553 14.7743L21.2184 15.2847H21.7532L21.3217 15.5967L21.4868 16.1072L21.0553 15.7922L20.6219 16.1072L20.7869 15.5967L20.3555 15.2847H20.8892ZM20.8892 10.7219L21.0553 10.2145L21.2184 10.7219H21.7532L21.3217 11.0369L21.4868 11.5443L21.0553 11.2293L20.6219 11.5443L20.7869 11.0369L20.3555 10.7219H20.8892ZM20.8892 6.26034L21.0553 5.75291L21.2184 6.26034H21.7532L21.3217 6.57534L21.4868 7.08277L21.0553 6.77081L20.6219 7.08277L20.7869 6.57534L20.3555 6.26034H20.8892ZM20.8892 1.80284L21.0553 1.29541L21.2184 1.80284H21.7532L21.3217 2.11784L21.4868 2.62527L21.0553 2.31028L20.6219 2.62527L20.7869 2.11784L20.3555 1.80284H20.8892ZM5.33144 11.0369L5.49652 11.5443L5.06405 11.2293L4.6326 11.5443L4.79768 11.0369L4.36521 10.7219H4.89897L5.06507 10.2145L5.23015 10.7219H5.76492L5.33245 11.0369H5.33144ZM5.33144 15.5967L5.49652 16.1072L5.06405 15.7922L4.6326 16.1072L4.79768 15.5967L4.36521 15.2847H4.89897L5.06507 14.7743L5.23015 15.2847H5.76492L5.33245 15.5967H5.33144ZM5.49652 20.4603L5.06405 20.1453L4.6326 20.4603L4.79768 19.9529L4.3642 19.6379H4.89795L5.06405 19.1305L5.22914 19.6379H5.76492L5.33245 19.9529L5.49754 20.4603H5.49652ZM3.33012 13.177L3.49622 13.6844L3.06375 13.3695L2.63229 13.6844L2.79738 13.177L2.36491 12.862H2.89967L3.06375 12.3546L3.22985 12.862H3.7636L3.33113 13.177H3.33012ZM3.45672 18.1419L3.02526 17.827L2.59077 18.1419L2.75687 17.6345L2.32541 17.3195H2.85916L3.02526 16.8121L3.18833 17.3195H3.7241L3.29062 17.6345L3.45672 18.1419ZM1.49794 20.4603L1.06648 20.1453L0.634014 20.4603L0.799102 19.9529L0.367644 19.6379H0.902409L1.0675 19.1305L1.2336 19.6379H1.76532L1.33387 19.9529L1.49896 20.4603H1.49794ZM23.003 0.230921C22.8065 0.200536 21.3491 0.0405072 21.1526 0.0172119L17.5581 0.149894C13.832 0.608709 10.3378 2.11176 7.46037 4.42508L7.5343 4.65196L7.34693 4.51522C6.68557 5.05507 6.05762 5.63846 5.46817 6.26136H5.76289L5.33042 6.57635L5.49551 7.08378L5.06304 6.77183L4.89086 6.89641C4.48776 7.3613 4.10492 7.84544 3.74436 8.34882H3.80412L3.67853 8.43997C3.59142 8.56354 3.50432 8.68812 3.42026 8.81371L3.53572 9.17124L3.29771 8.99906C2.08132 10.8465 1.15156 12.9268 0.590463 15.1956C0.583373 15.225 0.576283 15.2554 0.569194 15.2847H0.900383L1.06547 14.7743L1.23157 15.2847H1.7633L1.33184 15.5967L1.49693 16.1072L1.06547 15.7922L0.633001 16.1072L0.798089 15.5967L0.540835 15.4103C0.0486082 17.4947 -0.0982495 19.5812 0.0648132 21.6089H23.003V0.230921Z" fill="#24356B"/>
</g>
<defs>
<clipPath id="clip0_26_559">
<rect width="40" height="40" fill="white"/>
</clipPath>
</defs>
</svg>
